<?xml version="1.0" encoding="UTF-8"?>
<svg id="Capa_2" data-name="Capa 2" xmlns="http://www.w3.org/2000/svg" width="139.7268" height="154.6816" viewBox="0 0 139.7268 154.6816">
  <g id="Capa_1-2" data-name="Capa 1" fill="#D8E6F8">
    <g>
      <path d="M89.1536,72.8975v22.4693h-22.397c-10.9813,0-19.7957-8.8867-19.7957-19.7962v-3.4677c0-10.476,8.4528-18.9288,18.9288-18.9288h3.5401c10.9094,0,19.7239,8.814,19.7239,19.7234Z"/>
      <path d="M113.7175,122.1703c14.3772,0,26.0094,11.6317,26.0094,26.0094v6.502h-32.5837v-32.5114h.0723V32.5837H32.5837v89.5866h42.0481v6.8636c0,12.9321,9.3921,23.6251,21.7466,25.6478H26.0812c-14.3772,0-26.0812-11.6317-26.0812-26.0089V26.0812C0,11.7041,11.7041,0,26.0812,0h87.6362c14.3772,0,26.0094,11.7041,26.0094,26.0812v70.0801c0,14.3772-11.6322,26.0089-26.0094,26.0089Z"/>
    </g>
  </g>
</svg>